<svg width="36" height="36" viewBox="0 0 36 36" fill="none" xmlns="http://www.w3.org/2000/svg">
<path d="M17.6732 6.63V1" stroke="black" stroke-width="1.5" stroke-linecap="round"/>
<path fill-rule="evenodd" clip-rule="evenodd" d="M17.6731 20C17.6731 20 22.1731 12.5 20.6731 9.5C20.6731 9.5 19.6731 7 17.6731 7C15.6731 7 14.6731 9.5 14.6731 9.5C13.1731 12.5 17.6731 20 17.6731 20Z" fill="black" stroke="black" stroke-width="1.5"/>
<path fill-rule="evenodd" clip-rule="evenodd" d="M6.67313 32C12.1731 35.5 22.1731 35.5 27.6731 32V25C27.6731 25 36.6731 20.5 33.6731 14.5C29.6731 8.00001 20.1731 11 17.6731 18.5V22V18.5C14.1731 11 4.67313 8.00001 1.67313 14.5C-1.32687 20.5 6.67313 24.5 6.67313 24.5V32Z" fill="black" stroke="black" stroke-width="1.5" stroke-linecap="round" stroke-linejoin="round"/>
<path d="M15.1732 3H20.1732" stroke="black" stroke-width="1.5" stroke-linecap="round"/>
<path d="M27.1731 24.5C27.1731 24.5 35.6731 20.5 33.2031 14.85C29.3231 9.00001 20.1731 13 17.6731 19.5L17.6831 21.6L17.6731 19.5C15.1731 13 5.07911 9.00001 2.17011 14.85C-0.326889 20.5 7.02311 23.85 7.02311 23.85" stroke="white" stroke-width="1.5" stroke-linecap="round" stroke-linejoin="round"/>
<path d="M6.67316 32C12.1732 29 22.1732 29 27.6732 32M6.67316 25C12.1732 22 22.1732 22 27.6732 25H6.67316ZM6.67316 28.5C12.1732 25.5 22.1732 25.5 27.6732 28.5H6.67316Z" stroke="white" stroke-width="1.5" stroke-linecap="round" stroke-linejoin="round"/>
</svg>
