<svg width="34" height="34" viewBox="0 0 34 34" fill="none" xmlns="http://www.w3.org/2000/svg">
<path fill-rule="evenodd" clip-rule="evenodd" d="M17 4C27.5 5 33.5 12 33 33H10C10 24 20 26.5 18 12" fill="black"/>
<path d="M17 4C27.5 5 33.5 12 33 33H10C10 24 20 26.5 18 12" stroke="black" stroke-width="1.5" stroke-linecap="round" stroke-linejoin="round"/>
<path fill-rule="evenodd" clip-rule="evenodd" d="M19 12C19.38 14.91 13.45 19.37 11 21C8 23 8.18 25.34 6 25C4.958 24.06 7.41 21.96 6 22C5 22 6.19 23.23 5 24C4 24 0.997002 25 1 20C1 18 7 8 7 8C7 8 8.89 6.1 9 4.5C8.27 3.506 8.5 2.5 8.5 1.5C9.5 0.5 11.5 4 11.5 4H13.5C13.5 4 14.28 2.008 16 1C17 1 17 4 17 4" fill="black"/>
<path d="M19 12C19.38 14.91 13.45 19.37 11 21C8 23 8.18 25.34 6 25C4.958 24.06 7.41 21.96 6 22C5 22 6.19 23.23 5 24C4 24 0.997002 25 1 20C1 18 7 8 7 8C7 8 8.89 6.1 9 4.5C8.27 3.506 8.5 2.5 8.5 1.5C9.5 0.5 11.5 4 11.5 4H13.5C13.5 4 14.28 2.008 16 1C17 1 17 4 17 4" stroke="black" stroke-width="1.5" stroke-linecap="round" stroke-linejoin="round"/>
<path fill-rule="evenodd" clip-rule="evenodd" d="M4.5 19.5C4.5 19.6326 4.44732 19.7598 4.35355 19.8536C4.25979 19.9473 4.13261 20 4 20C3.86739 20 3.74021 19.9473 3.64645 19.8536C3.55268 19.7598 3.5 19.6326 3.5 19.5C3.5 19.3674 3.55268 19.2402 3.64645 19.1464C3.74021 19.0527 3.86739 19 4 19C4.13261 19 4.25979 19.0527 4.35355 19.1464C4.44732 19.2402 4.5 19.3674 4.5 19.5Z" fill="white" stroke="white" stroke-width="1.5" stroke-linecap="round" stroke-linejoin="round"/>
<path fill-rule="evenodd" clip-rule="evenodd" d="M9.93302 9.75C9.7341 10.0945 9.49772 10.3986 9.27586 10.5953C9.05401 10.792 8.86486 10.8653 8.75002 10.799C8.63518 10.7327 8.60406 10.5323 8.66351 10.2418C8.72296 9.95126 8.8681 9.59452 9.06702 9.25C9.26593 8.90549 9.50231 8.60142 9.72417 8.4047C9.94602 8.20797 10.1352 8.1347 10.25 8.201C10.3649 8.26731 10.396 8.46776 10.3365 8.75825C10.2771 9.04874 10.1319 9.40549 9.93302 9.75Z" fill="white" stroke="white" stroke-width="1.5" stroke-linecap="round" stroke-linejoin="round"/>
<path fill-rule="evenodd" clip-rule="evenodd" d="M19.55 4.39999L19.1 5.84999L19.6 5.99999C22.75 6.99999 25.25 8.48999 27.5 12.75C29.75 17.01 30.75 23.06 30.25 33L30.2 33.5H32.45L32.5 33C33 22.94 31.62 16.15 29.25 11.66C26.88 7.16999 23.46 5.01999 20.06 4.49999L19.55 4.39999Z" fill="white"/>
</svg>
