<svg width="36" height="36" viewBox="0 0 36 36" fill="none" xmlns="http://www.w3.org/2000/svg">
<path d="M17.6732 6.63V1" stroke="black" stroke-width="1.5" stroke-linecap="round"/>
<path d="M15.1731 3H20.1731" stroke="black" stroke-width="1.5" stroke-linecap="round"/>
<path fill-rule="evenodd" clip-rule="evenodd" d="M17.6732 20C17.6732 20 22.1732 12.5 20.6732 9.5C20.6732 9.5 19.6732 7 17.6732 7C15.6732 7 14.6732 9.5 14.6732 9.5C13.1732 12.5 17.6732 20 17.6732 20Z" fill="white" stroke="black" stroke-width="1.5"/>
<path fill-rule="evenodd" clip-rule="evenodd" d="M6.67313 32C12.1731 35.5 22.1731 35.5 27.6731 32V25C27.6731 25 36.6731 20.5 33.6731 14.5C29.6731 8.00001 20.1731 11 17.6731 18.5V22V18.5C14.1731 11 4.67313 8.00001 1.67313 14.5C-1.32687 20.5 6.67313 24.5 6.67313 24.5V32Z" fill="white" stroke="black" stroke-width="1.5" stroke-linecap="round" stroke-linejoin="round"/>
<path d="M6.6731 25C12.1731 22 22.1731 22 27.6731 25" stroke="black" stroke-width="1.5" stroke-linecap="round" stroke-linejoin="round"/>
<path d="M6.6731 28.5C12.1731 25.5 22.1731 25.5 27.6731 28.5" stroke="black" stroke-width="1.5" stroke-linecap="round" stroke-linejoin="round"/>
<path d="M6.6731 32C12.1731 29 22.1731 29 27.6731 32" stroke="black" stroke-width="1.5" stroke-linecap="round" stroke-linejoin="round"/>
</svg>
